<svg xmlns="http://www.w3.org/2000/svg" viewBox="0 11.25 185.3000030517578 36" data-asc="0.935"><g fill="#000000"><g fill="#000000" transform="translate(0, 0)"><path d="M36.65 30.80L43.20 30.80L43.20 31.80L41.25 31.80L41.25 32.80L38.45 32.80L38.45 33.50Q38.45 33.70 38.43 33.90Q38.40 34.10 38.40 34.30L38.55 34.30Q38.55 34.50 38.52 34.67Q38.50 34.85 38.50 35.05L38.05 35.05Q38.05 35.15 38.05 35.30Q38.05 35.45 38 35.55L33.40 35.55Q33.35 35.65 33.35 35.80Q33.35 35.95 33.30 36.05L33.35 36.05L33.20 36.80L36.80 36.80Q36.75 37 36.70 37.17Q36.65 37.35 36.60 37.55L37.15 37.55Q37.10 37.80 37 38.05Q36.90 38.30 36.80 38.55L37.45 38.55L37.25 39.05L36.50 39.05Q36.40 39.30 36.27 39.55Q36.15 39.80 36 40.05L38 40.05L37.70 40.55L38.10 40.55Q38 40.65 37.93 40.80Q37.85 40.95 37.75 41.05L34.90 41.05Q34.85 41.10 34.80 41.15Q34.75 41.20 34.70 41.30L37.95 41.30Q37.75 41.60 37.55 41.80L36.75 41.80Q36.60 42 36.43 42.17Q36.25 42.35 36.05 42.55L37.80 42.55L37 43.30L36.45 43.30L36.15 43.55L34.65 43.55Q34.20 43.90 33.60 44.30L33.30 44.30Q33 44.50 32.67 44.67Q32.35 44.85 32 45.05L31.05 45.05L30.50 45.30L29.20 45.30Q28.25 45.75 27.35 46.05L26.10 46.05Q24.75 46.50 23.25 46.80L22.30 46.80Q21.90 46.85 21.48 46.92Q21.05 47 20.65 47.05L22 47.05Q21.20 47.15 20.32 47.20Q19.45 47.25 18.55 47.25Q17.60 47.25 16.73 47.20Q15.85 47.15 15 47.05L13.70 47.05Q13.25 47 12.85 46.92Q12.45 46.85 12.05 46.80L13 46.80Q11.50 46.50 10.15 46.05L11.40 46.05Q10.50 45.75 9.60 45.30L10.95 45.30Q10.80 45.20 10.68 45.15Q10.55 45.10 10.45 45.05L11.45 45.05Q11.10 44.85 10.80 44.67Q10.50 44.50 10.20 44.30L10.55 44.30L9.55 43.55L11.05 43.55L10.75 43.30L11.30 43.30L10.55 42.55L8.85 42.55Q8.65 42.35 8.50 42.17Q8.35 42 8.20 41.80L9 41.80Q8.95 41.70 8.85 41.55Q8.75 41.40 8.65 41.30L5.40 41.30L5.25 41.05L8.10 41.05L7.80 40.55L7.45 40.55L7.15 40.05L5.15 40.05L4.70 39.05L5.45 39.05Q5.40 38.95 5.35 38.80Q5.30 38.65 5.25 38.55L4.60 38.55Q4.50 38.30 4.43 38.05Q4.35 37.80 4.25 37.55L3.70 37.55Q3.65 37.35 3.60 37.17Q3.55 37 3.50 36.80L3.10 36.80Q3.05 36.60 3 36.42Q2.95 36.25 2.90 36.05L0.10 36.05Q0.05 35.95 0.05 35.80Q0.05 35.65 0 35.55L4.60 35.55Q4.60 35.45 4.60 35.30Q4.60 35.15 4.55 35.05L4 35.05Q3.95 34.85 3.92 34.67Q3.90 34.50 3.90 34.30L5.90 34.30Q5.90 34.10 5.90 33.92Q5.90 33.75 5.85 33.55L7.75 33.55L7.75 32.80L2.10 32.80L2.10 31.80L6.30 31.80Q6.25 31.55 6.25 31.30Q6.25 31.05 6.25 30.80L6.90 30.80L6.90 30.30L2.75 30.30L2.75 29.80L3.20 29.80L3.20 29.05L4.55 29.05L4.55 28.55L3.85 28.55L3.85 28.30L3.60 28.30L3.60 27.30L3.65 27.30L3.65 26.30L3.80 26.30L3.80 26.05L3.95 26.05L3.95 25.80L3 25.80L3 25.55L4.05 25.55L4.05 25.30L3.80 25.30Q3.85 25.10 3.85 24.92Q3.85 24.75 3.85 24.55L4.25 24.55L4.25 24.30L3.45 24.30Q3.45 24.05 3.48 23.80Q3.50 23.55 3.50 23.30L3.85 23.30Q3.90 23.20 3.90 23.05Q3.90 22.90 3.95 22.80L4.20 22.80L4.35 22.05L2.65 22.05L2.80 21.30L4.30 21.30Q4.40 21.05 4.45 20.77Q4.50 20.50 4.60 20.30L5.20 20.30L5.30 20.05L4.95 20.05Q5 19.85 5.08 19.67Q5.15 19.50 5.20 19.30L5.15 19.30Q5.25 19.10 5.33 18.92Q5.40 18.75 5.50 18.55L5.35 18.55L5.80 17.80L6.20 17.80L6.35 17.55L5.90 17.55L6.45 16.80L9.45 16.80Q9.60 16.65 9.65 16.55L6.85 16.55L7.30 16.05L7.05 16.05L7.80 15.30Q8.10 15.05 8.40 14.77Q8.70 14.50 9.05 14.30L9.10 14.30Q9.50 14.05 9.90 13.77Q10.30 13.50 10.75 13.30Q11 13.15 11.28 13.02Q11.55 12.90 11.80 12.80L11.90 12.80Q12.95 12.35 14.15 12.05L14.10 12.05Q15.60 11.65 17.27 11.45Q18.95 11.25 20.75 11.25Q22.65 11.25 24.33 11.45Q26 11.65 27.55 12.05Q28.80 12.35 29.90 12.80L29.80 12.80Q30.10 12.90 30.40 13.02Q30.70 13.15 31 13.30Q31.50 13.50 31.95 13.77Q32.40 14.05 32.85 14.30L32.80 14.30Q33.20 14.50 33.53 14.77Q33.85 15.05 34.20 15.30L34.15 15.30Q34.40 15.50 34.60 15.67Q34.80 15.85 35 16.05L35.25 16.05L35.70 16.55L38.50 16.55L38.75 16.80L35.70 16.80Q35.90 17 36.02 17.17Q36.15 17.35 36.30 17.55L36.75 17.55L36.90 17.80L36.50 17.80Q36.60 18 36.73 18.17Q36.85 18.35 36.90 18.55L37.05 18.55Q37.15 18.75 37.25 18.92Q37.35 19.10 37.40 19.30L37.50 19.30Q37.60 19.50 37.65 19.67Q37.70 19.85 37.75 20.05L38.15 20.05Q38.15 20.10 38.18 20.15Q38.20 20.20 38.20 20.30L37.60 20.30Q37.70 20.55 37.73 20.80Q37.75 21.05 37.80 21.30L37.90 21.30Q37.90 21.50 37.93 21.67Q37.95 21.85 37.95 22.05L38.75 22.05Q38.80 22.15 38.80 22.40Q38.80 22.60 38.70 22.80L37.85 22.80Q37.75 23.15 37.45 23.30L37.80 23.30Q37.55 23.50 37.15 23.50L26.10 23.50Q25.45 23.50 25.10 23.30L24.75 23.30Q24.45 23.10 24.35 22.95L24.20 22.80L25.10 22.80Q25 22.65 24.85 22.45Q24.70 22.25 24.45 22.05L23.65 22.05Q23.15 21.55 22.50 21.30L22.40 21.30Q21.75 21 20.70 21Q19.65 21 18.90 21.30L17.40 21.30Q16.75 21.50 16.30 22.05L18 22.05Q17.75 22.30 17.50 22.80L17.20 22.80Q17.15 22.90 17.10 23.02Q17.05 23.15 17 23.30L16.65 23.30Q16.60 23.50 16.55 23.77Q16.50 24.05 16.45 24.30L17.30 24.30Q17.25 24.40 17.25 24.55L16.85 24.55L16.85 25.30L17.05 25.30L17.05 25.55L16 25.55L16 25.80L16.95 25.80L16.95 26.05L16.80 26.05L16.80 26.30L16.65 26.30L16.65 27.30L16.60 27.30L16.60 28.30L16.85 28.30L16.85 28.55L17.55 28.55L17.55 29.05L16.20 29.05L16.20 29.80L15.75 29.80L15.75 30.30L19.90 30.30L19.90 30.80L19.25 30.80Q19.25 31.05 19.28 31.30Q19.30 31.55 19.30 31.80L15.10 31.80L15.10 32.80L20.75 32.80L20.75 33.55L18.90 33.55Q18.90 33.75 18.93 33.92Q18.95 34.10 18.95 34.30L16.95 34.30Q17 34.50 17.05 34.67Q17.10 34.85 17.15 35.05L17.70 35.05Q17.75 35.20 17.80 35.33Q17.85 35.45 17.90 35.55L13.30 35.55Q13.35 35.80 13.60 36.05L16.40 36.05Q16.70 36.50 17.15 36.80L17.60 36.80Q18.50 37.50 20.15 37.50Q21 37.50 21.75 37.33Q22.50 37.15 23 36.80L19.45 36.80Q19.85 36.55 20.25 36.05L20.20 36.05Q20.40 35.75 20.45 35.55L25.10 35.55L25.25 35.05L25.70 35.05Q25.75 34.85 25.78 34.67Q25.80 34.50 25.80 34.30L25.65 34.30L25.70 33.95L25.70 33.90L23.35 33.90Q22.85 33.90 22.40 33.55Q22.05 33.20 22 32.80L24.85 32.80Q24.80 32.70 24.80 32.55L24.80 31.80L26.75 31.80L26.75 30.80L20.20 30.80L20.20 30.30L22.85 30.30L22.85 29.80L21 29.80L21 29.05L21.50 29.05L21.50 28.55L21.85 28.55L21.85 28.30L21.45 28.30L21.45 27.30L21.60 27.30L21.60 27Q21.60 26.55 21.80 26.30L21.60 26.30Q21.65 26.20 21.80 26.05L22.10 26.05Q22.30 25.85 22.40 25.80L21.50 25.80Q21.75 25.65 22.10 25.65L35.85 25.65Q36.25 25.65 36.45 25.80L37.40 25.80Q37.55 25.85 37.75 26.05L37.45 26.05Q37.60 26.20 37.65 26.30L37.85 26.30Q38.05 26.55 38.05 27L38.05 27.30L37.90 27.30L37.90 28.30L38.30 28.30L38.30 28.55L37.95 28.55L37.95 29.05L37.45 29.05L37.45 29.80L39.30 29.80L39.30 30.30L36.65 30.30L36.65 30.80ZM41.40 13.05Q41.45 12.90 41.48 12.77Q41.50 12.65 41.55 12.55L36.05 12.55Q36.15 12.40 36.25 12.27Q36.35 12.15 36.45 12.05L42.25 12.05Q42.65 11.75 43.10 11.75L53.10 11.75Q53.65 11.75 53.95 12.05L48.15 12.05Q48.25 12.15 48.38 12.27Q48.50 12.40 48.55 12.55L54 12.55Q54.10 12.85 54.10 13.05L56.90 13.05Q56.95 13.05 56.95 13.07Q56.95 13.10 56.95 13.10L56.95 13.55L50.20 13.55L50.20 14.55L53 14.55L53 15.30L52.70 15.30L52.70 16.30L50.90 16.30L50.90 17.30L54.95 17.30L54.95 17.55L55.25 17.55L55.25 18.55L55.45 18.55L55.45 19.55L55.10 19.55L55.10 20.55L54.85 20.55L54.85 21.80L55.70 21.80L55.70 22.80L54.75 22.80L54.75 23.80L54.95 23.80L54.95 24.05L58.50 24.05L58.50 25.05L60.35 25.05L60.35 25.55L52.65 25.55L52.65 26.05L55.20 26.05L55.20 27.05L53.10 27.05L53.10 28.05L54.90 28.05L54.90 28.55L55.25 28.55L55.25 29.30L61.95 29.30L61.95 29.80L66.60 29.80L66.60 30.80L53.90 30.80L53.90 29.80L49.25 29.80L49.25 29.30L42.55 29.30L42.55 28.55L42.20 28.55L42.20 28.05L40.40 28.05L40.40 27.05L42.50 27.05L42.50 26.05L39.95 26.05L39.95 25.55L47.65 25.55L47.65 25.05L45.80 25.05L45.80 24.05L42.25 24.05L42.25 23.80L42.05 23.80L42.05 22.80L43 22.80L43 21.80L42.15 21.80L42.15 20.55L42.40 20.55L42.40 19.55L42.75 19.55L42.75 18.55L42.55 18.55L42.55 17.55L42.25 17.55L42.25 17.30L38.20 17.30L38.20 16.30L40 16.30L40 15.30L40.30 15.30L40.30 14.55L37.50 14.55L37.50 13.55L44.25 13.55L44.25 13.05L41.40 13.05M74.65 40.05L61 40.05L61 40.30L62 40.30L62 41.05L69.10 41.05L69.10 41.30L66.90 41.30L66.90 42.30L70.40 42.30L70.40 43.05L70.90 43.05L70.90 43.30L70.55 43.30L70.55 43.55L70.40 43.55L70.40 44.55L70.50 44.55L70.50 45.30L70.30 45.30L70.30 45.55L70.05 45.55Q70 45.65 70 45.80L70.55 45.80Q70.40 46.30 70 46.55L69.45 46.55Q69.20 46.75 68.75 46.75L43.55 46.75Q43.10 46.75 42.85 46.55L43.35 46.55Q42.90 46.30 42.75 45.80L42.20 45.80Q42.20 45.70 42.17 45.65Q42.15 45.60 42.15 45.55L42.40 45.55L42.40 45.30L42.60 45.30L42.60 44.55L42.50 44.55L42.50 43.55L42.65 43.55L42.65 43.30L43 43.30L43 43.05L42.50 43.05L42.50 42.30L39 42.30L39 41.30L41.20 41.30L41.20 41.05L34.10 41.05L34.10 40.30L33.10 40.30L33.10 40.05L46.75 40.05L46.75 39.30L41.20 39.30L41.20 38.55L46.60 38.55L46.60 38.30L34.80 38.30L34.80 37.55L36.50 37.55L36.50 37.30L43 37.30L43 37.05L40.70 37.05L40.70 36.30L44.60 36.30L44.60 35.30L40.65 35.30L40.65 34.80L43.90 34.80L43.90 34.55L42.40 34.55L42.40 33.80L43.85 33.80L43.85 33.30L42 33.30L42 32.80L46.35 32.80L46.35 32.05L47.60 32.05L47.60 31.55L40.75 31.55L40.75 30.80L53.45 30.80L53.45 31.55L60.30 31.55L60.30 32.05L59.05 32.05L59.05 32.80L54.70 32.80L54.70 33.30L56.55 33.30L56.55 33.80L55.10 33.80L55.10 34.55L56.60 34.55L56.60 34.80L53.35 34.80L53.35 35.30L57.30 35.30L57.30 36.30L53.40 36.30L53.40 36.50L67.25 36.50Q67.95 36.50 68.35 37.05L70.65 37.05L70.80 37.30L64.30 37.30L64.40 37.55L62.65 37.55Q62.70 37.65 62.70 37.85L62.70 38.30L74.50 38.30L74.50 38.55L69.10 38.55L69.10 39.30L74.65 39.30L74.65 40.05ZM80.95 44.80L87.40 44.80L87.40 45.55L80.40 45.55Q80.30 46.25 79.75 46.55L82.65 46.55Q82.40 46.75 81.95 46.75L73.25 46.75Q72.75 46.75 72.50 46.55L69.65 46.55Q69.10 46.25 69 45.55L76 45.55L76 44.80L69.55 44.80L69.55 43.80L68.65 43.80L68.65 43.05L75.75 43.05L75.75 42.30L66.55 42.30L66.55 42.05L67.25 42.05L67.25 41.30L73 41.30L73 41.05L68.30 41.05L68.30 40.80L72.40 40.80L72.40 40.30L71.85 40.30L71.85 39.55L73.05 39.55L73.05 39.30L73.60 39.30L73.60 38.30L73.75 38.30L73.75 38.05L74.10 38.05L74.10 37.05L75.35 37.05L75.35 36.80L73.15 36.80L73.15 36.70Q73.15 36.25 73.50 35.80L75.15 35.80Q75.55 35.35 76.15 35.35L84.85 35.35Q85.50 35.35 85.85 35.80L84.25 35.80Q84.55 36.15 84.55 36.70L84.55 36.80L86.75 36.80L86.75 37.05L85.50 37.05L85.50 38.05L85.15 38.05L85.15 38.30L85 38.30L85 39.30L84.45 39.30L84.45 39.55L83.25 39.55L83.25 40.30L83.80 40.30L83.80 40.80L79.70 40.80L79.70 41.05L84.40 41.05L84.40 41.30L78.65 41.30L78.65 42.05L77.95 42.05L77.95 42.30L87.15 42.30L87.15 43.05L80.05 43.05L80.05 43.80L80.95 43.80L80.95 44.80ZM116.85 38.80L114.85 38.80L114.85 39.30L115.00 39.30L115.00 39.80L121.25 39.80L121.25 40.80L118.80 40.80L118.80 41.30L115.40 41.30L115.40 42.05L120.70 42.05L120.70 42.55L117.75 42.55L117.75 42.80L117.35 42.80L117.35 43.80L115.60 43.80L115.60 44.30L117.20 44.30L117.20 44.80L115.75 44.80L115.75 45.40Q115.75 45.50 115.73 45.60Q115.70 45.70 115.70 45.80L116.90 45.80Q116.90 45.85 116.80 46.05L117.20 46.05Q116.85 46.75 116.05 46.75L107.55 46.75Q106.80 46.75 106.35 46.05L105.95 46.05L105.80 45.80L104.60 45.80Q104.55 45.70 104.55 45.55L104.15 45.80L104.60 45.80L104.20 46.05L105.75 46.05Q104.95 46.50 103.95 46.80L103.70 46.80Q103.45 46.85 103.18 46.92Q102.90 47 102.65 47.05L102.40 47.05Q101.85 47.15 101.28 47.20Q100.70 47.25 100.10 47.25Q99.45 47.25 98.85 47.20Q98.25 47.15 97.70 47.05L97.95 47.05Q97.70 47 97.40 46.92Q97.10 46.85 96.85 46.80L97.10 46.80Q96.05 46.50 95.20 46.05L93.65 46.05L93.20 45.80L92.75 45.80Q92.40 45.55 92.08 45.33Q91.75 45.10 91.45 44.80L92.95 44.80L92.45 44.30L89.35 44.30L88.90 43.80L90.70 43.80Q90.30 43.30 90.00 42.80L90.40 42.80L90.25 42.55L93.15 42.55Q93.05 42.30 92.90 42.05L87.60 42.05L87.30 41.30L90.65 41.30L90.50 40.80L92.95 40.80L92.65 39.80L86.40 39.80L86.25 39.30L86.15 39.30Q86.05 39 86.05 38.80L88.00 38.80Q87.95 38.55 87.90 38.30Q87.85 38.05 87.80 37.80L90.80 37.80Q90.75 37.70 90.75 37.55Q90.75 37.40 90.75 37.30L89.20 37.30Q89.20 37.10 89.18 36.92Q89.15 36.75 89.15 36.55L88.15 36.55Q88.15 36.35 88.15 36.17Q88.15 36 88.10 35.80L88.00 35.80L88.00 35.55Q88.00 35.35 87.98 35.17Q87.95 35 87.95 34.80L87.20 34.80Q87.15 34.60 87.15 34.42Q87.15 34.25 87.15 34.05L88.10 34.05L88.10 33.05L88.35 33.05L88.35 32.80L88.45 32.80L88.45 31.80L89.50 31.80L89.50 31.75Q89.50 31.50 89.50 31.25Q89.50 31 89.55 30.80L86.85 30.80Q86.90 30.60 86.90 30.43Q86.90 30.25 86.95 30.05L89.05 30.05L89.05 29.80L89.15 29.80Q89.20 29.70 89.20 29.55Q89.20 29.40 89.25 29.30L89.40 29.30L89.55 28.55L88.45 28.55L88.55 28.30L88.40 28.30Q88.45 28.10 88.50 27.93Q88.55 27.75 88.60 27.55L88.90 27.55Q89.00 27.30 89.08 27.02Q89.15 26.75 89.25 26.55L89.15 26.55L89.25 26.30Q89.35 26.05 89.48 25.77Q89.60 25.50 89.75 25.30L90.20 24.55L89.70 24.55L90.05 24.05L89.40 24.05Q89.60 23.85 89.80 23.55L91.55 23.55Q91.65 23.45 91.78 23.30Q91.90 23.15 92.05 23.05L90.30 23.05Q90.65 22.70 90.85 22.55L92.40 22.55Q92.95 22.10 93.45 21.80L92.90 21.80Q93.90 21.20 95.05 20.80L94.30 20.80Q96.10 20.25 97.95 20.25Q99.85 20.25 101.50 20.80L102.25 20.80Q103.35 21.15 104.30 21.80L106.95 21.80L106.95 20.80L105.85 20.80L105.85 19.80L107.35 19.80L107.35 19.05L107.30 19.05L107.30 18.05L105.10 18.05L105.10 17.55L105.55 17.55L105.55 17.05L105.90 17.05L105.90 16.80L105.60 16.80L105.60 16.55L105.45 16.55L105.45 16.30L105.40 16.30L105.40 16.05L105.25 16.05L105.25 15.80L105.15 15.80L105.15 14.80L104.10 14.80L104.10 13.80L105.25 13.80L105.25 13.55L105.40 13.55L105.40 12.55Q105.40 12.35 105.50 12.05L106.00 12.05Q106.35 11.25 107.25 11.25L116.50 11.25Q117.40 11.25 117.75 12.05L117.20 12.05Q117.35 12.25 117.35 12.60L117.35 13.55L117.20 13.55L117.20 13.80L116.05 13.80L116.05 14.80L117.10 14.80L117.10 15.80L117.20 15.80L117.20 16.05L117.35 16.05L117.35 16.30L117.40 16.30L117.40 16.55L117.55 16.55L117.55 16.80L117.85 16.80L117.85 17.05L117.50 17.05L117.50 17.55L117.05 17.55L117.05 18.05L119.25 18.05L119.25 19.05L119.30 19.05L119.30 19.80L117.80 19.80L117.80 20.80L118.90 20.80L118.90 21.80L116.50 21.80L116.50 22.55L116.25 22.55L116.25 23.05L118.00 23.05L118.00 23.55L116.25 23.55L116.25 24.05L116.85 24.05L116.85 24.55L117.40 24.55L117.40 25.30L117.35 25.30L117.35 26.55L117.45 26.55L117.45 27.55L117.15 27.55L117.15 28.30L117.25 28.30L117.25 28.55L118.35 28.55L118.35 29.30L119.55 29.30L119.55 29.80L118.15 29.80L118.15 30.05L117.25 30.05L117.25 30.80L118.20 30.80L118.20 31.80L115.15 31.80L115.15 32.80L115.50 32.80L115.50 33.05L117.00 33.05L117.00 33.30L117.45 33.30L117.45 34.05L116.95 34.05L116.95 34.80L117.65 34.80L117.65 35.55L117.70 35.55L117.70 35.80L117.15 35.80L117.15 36.55L117.55 36.55L117.55 37.30L121.80 37.30L121.80 37.80L116.85 37.80L116.85 38.80M103.35 37.30Q103.45 37.45 103.55 37.58Q103.65 37.70 103.75 37.80L100.75 37.80Q101.35 38.30 102.40 38.30Q103.40 38.30 104.05 37.80L109.00 37.80Q109.10 37.70 109.23 37.58Q109.35 37.45 109.40 37.30L105.15 37.30Q105.30 37 105.45 36.55L105.05 36.55Q105.10 36.35 105.13 36.17Q105.15 36 105.15 35.80L105.75 35.80L105.75 35.55L105.70 35.55L105.70 35.40Q105.70 35.25 105.70 35.10Q105.70 34.95 105.75 34.80L105.05 34.80L105.05 34.05L105.55 34.05L105.55 33.30L105.15 33.30L105.15 33.05L103.60 33.05L103.60 32.80L103.30 32.80Q103.25 32.55 103.25 32.30Q103.25 32.05 103.20 31.80L106.25 31.80L106.25 31.70Q106.20 31.15 106.10 30.80L105.15 30.80Q105.00 30.30 104.80 30.05L105.70 30.05Q105.65 29.95 105.50 29.80L106.90 29.80Q106.55 29.45 106.00 29.30L104.80 29.30Q104.60 29.25 104.38 29.22Q104.15 29.20 103.90 29.20Q103.65 29.20 103.45 29.22Q103.25 29.25 103.05 29.30L102.90 29.30Q102.35 29.45 102.00 29.80L101.90 29.80Q101.85 29.90 101.70 30.05L99.65 30.05Q99.45 30.30 99.30 30.80L101.95 30.80Q101.90 31 101.85 31.27Q101.80 31.55 101.75 31.80L100.75 31.80L100.75 32.10Q100.70 32.25 100.70 32.42Q100.70 32.60 100.65 32.80L100.55 32.80L100.55 33.05L100.35 33.05L100.35 33.30Q100.30 33.65 100.35 34.05L99.40 34.05L99.40 34.80L100.20 34.80Q100.20 34.95 100.20 35.10Q100.20 35.25 100.25 35.40L100.25 35.55Q100.30 35.65 100.30 35.80L100.40 35.80L100.55 36.55L101.55 36.55Q101.65 37 101.85 37.30L103.35 37.30ZM147.30 33.05L147.30 33.55L153.65 33.55L153.65 34.05L149.80 34.05L149.80 34.55L148.00 34.55L148.00 35.05L149.55 35.05L149.55 35.35Q149.55 35.65 149.50 35.80L150.20 35.80Q149.85 36.70 148.90 36.70L134.00 36.70L134.00 36.80L136.00 36.80L136.00 36.95Q136.00 37.15 136.00 37.38Q136.00 37.60 136.05 37.80L133.35 37.80Q133.35 37.95 133.38 38.08Q133.40 38.20 133.40 38.30L133.10 38.30Q133.10 38.50 133.20 38.80L133.40 38.80Q133.65 39.50 134.20 39.80L132.85 39.80Q133.20 40 133.80 40Q134.20 40 134.45 39.80L136.80 39.80Q137.00 39.70 137.18 39.50Q137.35 39.30 137.60 39.10L137.90 38.80L136.95 38.80Q137.40 38.40 138.30 38.40L147.75 38.40Q148.35 38.40 148.65 38.80L149.55 38.80Q149.80 39.15 149.80 39.50Q149.75 39.60 149.75 39.80L147.40 39.80Q147.30 40.30 147.10 40.80L144.65 40.80Q144.50 41.05 144.40 41.30L150.60 41.30Q150.50 41.55 150.33 41.80Q150.15 42.05 149.95 42.30L148.45 42.30Q148.25 42.60 148.05 42.80L148.40 42.80Q148.35 42.85 148.30 42.90Q148.25 42.95 148.20 43.05L145.40 43.05L145.15 43.30L146.00 43.30Q145.95 43.35 145.88 43.40Q145.80 43.45 145.75 43.55L147.30 43.55Q146.95 43.90 146.40 44.30L145.65 44.30Q145.60 44.35 145.50 44.40Q145.40 44.45 145.30 44.55L144.75 44.55Q143.95 45.10 143.00 45.55L142.35 45.55Q141.75 45.85 141.08 46.10Q140.40 46.35 139.65 46.55L138.85 46.55Q138.30 46.70 137.70 46.83Q137.10 46.95 136.40 47.05L138.50 47.05Q137.80 47.15 137.05 47.20Q136.30 47.25 135.45 47.25Q134.65 47.25 133.85 47.20Q133.05 47.15 132.30 47.05L130.20 47.05Q129.55 46.95 128.95 46.83Q128.35 46.70 127.75 46.55L128.55 46.55Q127.20 46.20 126.00 45.55L126.65 45.55Q125.75 45.05 125.10 44.55L125.65 44.55Q125.55 44.45 125.48 44.40Q125.40 44.35 125.30 44.30L126.05 44.30Q125.85 44.10 125.65 43.92Q125.45 43.75 125.25 43.55L123.65 43.55L123.40 43.30L122.55 43.30Q122.50 43.20 122.45 43.15Q122.40 43.10 122.35 43.05L125.10 43.05Q125.05 42.95 124.90 42.80L124.55 42.80Q124.45 42.70 124.35 42.55Q124.25 42.40 124.15 42.30L125.65 42.30Q125.50 42.05 125.35 41.80Q125.20 41.55 125.05 41.30L118.80 41.30Q118.65 41.05 118.55 40.80L121.00 40.80L120.55 39.80L121.90 39.80Q121.80 39.55 121.73 39.30Q121.65 39.05 121.55 38.80L121.40 38.80L121.25 38.30L121.60 38.30L121.45 37.80L124.15 37.80Q124.10 37.55 124.05 37.30Q124.00 37.05 123.95 36.80L121.95 36.80L121.85 35.80L121.15 35.80Q121.15 35.60 121.13 35.42Q121.10 35.25 121.10 35.05L119.55 35.05L119.55 34.55L121.30 34.55L121.30 34.05L125.15 34.05L125.15 33.55L118.80 33.55L118.80 33.45Q118.80 33.20 118.85 33.05L127.50 33.05Q127.50 32.85 127.53 32.67Q127.55 32.50 127.55 32.30L119.60 32.30Q119.60 32.20 119.63 32.15Q119.65 32.10 119.65 32.05L122.95 32.05Q122.95 31.90 123.00 31.80L126.70 31.80L126.70 31.55L119.65 31.55Q119.70 31.30 119.75 31.05Q119.80 30.80 119.85 30.55L121.75 30.55Q121.75 30.35 121.85 30.05L120.20 30.05Q120.20 29.95 120.23 29.90Q120.25 29.85 120.25 29.80L121.45 29.80Q121.45 29.70 121.48 29.65Q121.50 29.60 121.50 29.55L120.25 29.55L120.35 29.30L121.55 29.30L121.70 28.80L122.65 28.80L122.95 28.05L122.05 28.05Q122.15 27.80 122.25 27.52Q122.35 27.25 122.50 27.05L122.35 27.05L122.45 26.80L121.20 26.80Q121.30 26.60 121.30 26.55L120.15 26.55L120.45 26.05L122.90 26.05Q122.95 25.95 123.10 25.80L124.00 25.80Q124.20 25.55 124.38 25.27Q124.55 25 124.75 24.80L123.85 24.80Q124.00 24.60 124.18 24.42Q124.35 24.25 124.55 24.05L126.50 24.05L127.00 23.55L124.05 23.55Q124.70 23 125.35 22.55L128.10 22.55L128.50 22.30L127.60 22.30Q128.00 22.05 128.55 21.80L130.50 21.80Q131.85 21.15 133.30 20.80L130.50 20.80Q131.60 20.55 132.80 20.40Q134.00 20.25 135.30 20.25Q136.60 20.25 137.75 20.40Q138.90 20.55 139.95 20.80L142.70 20.80Q143.45 21 144.13 21.25Q144.80 21.50 145.45 21.80L143.50 21.80Q143.75 21.90 143.98 22.02Q144.20 22.15 144.40 22.30L145.30 22.30Q145.40 22.35 145.50 22.40Q145.60 22.45 145.70 22.55L142.95 22.55Q143.60 23 144.25 23.55L147.25 23.55L147.75 24.05L145.80 24.05Q146.00 24.25 146.18 24.42Q146.35 24.60 146.50 24.80L147.40 24.80Q147.60 25 147.78 25.27Q147.95 25.55 148.15 25.80L147.20 25.80Q147.25 25.90 147.40 26.05L144.90 26.05L145.20 26.55L146.35 26.55L146.50 26.80L147.80 26.80Q147.80 26.85 147.90 27.05L148.05 27.05L148.50 28.05L148.80 28.80L148.85 28.80L149.00 29.30L148.40 29.30L148.50 29.55L148.95 29.55L149.05 29.80L149.85 29.80Q149.85 29.85 149.88 29.90Q149.90 29.95 149.90 30.05L149.50 30.05L149.65 30.55L147.75 30.55L147.90 31.55L154.95 31.55L154.95 31.80L151.25 31.80Q151.25 31.85 151.28 31.90Q151.30 31.95 151.30 32.05L147.95 32.05Q148.00 32.15 148.00 32.30L155.95 32.30Q155.95 32.50 155.95 32.67Q155.95 32.85 156.00 33.05L147.30 33.05M132.10 29.80L132.10 30.05L133.70 30.05L133.70 30.45L137.70 30.45L137.70 30.05L138.05 30.05L138.05 29.80L137.25 29.80L137.25 29.55L136.75 29.55Q136.75 29.40 136.70 29.30L137.30 29.30Q137.30 29.10 137.20 28.80L137.15 28.80Q137.10 28.35 136.85 28.05Q136.35 27.25 135.30 27.25Q134.30 27.25 133.80 28.05L134.70 28.05Q134.50 28.35 134.40 28.80L133.40 28.80Q133.40 28.90 133.38 29.02Q133.35 29.15 133.30 29.30L132.10 29.30Q132.10 29.45 132.05 29.55L133.30 29.55L133.30 29.80L132.10 29.80ZM176.65 31.55L185.30 31.55L185.10 32.05L182.45 32.05L182.35 32.30L176.85 32.30L176.55 33.05L177.80 33.05L177.70 33.30L177.20 33.30L177.00 33.80L176.60 33.80L176.50 34.05L177.85 34.05L177.60 34.55L173.60 34.55L173.30 35.30L173.60 35.30L173.50 35.55L169.95 35.55L169.55 36.55L177.35 36.55L176.95 37.55L168.55 37.55L168.15 38.55L170.15 38.55L170.05 38.80L175.25 38.80L175.05 39.30L174.50 39.30L174.20 40.05L169.95 40.05L169.85 40.30L173.45 40.30L173.15 41.05L174.25 41.05L174.05 41.55L173.45 41.55L173.05 42.55L173.45 42.55L172.95 43.80L172.90 43.80L172.80 44.05L172.70 44.05L172.50 44.55L172.55 44.55L172.35 45.05L172.70 45.05L172.55 45.30L171.30 45.30L171.25 45.50Q171.20 45.50 171.20 45.52Q171.20 45.55 171.20 45.55L171.30 45.55L171.00 46.05L171.75 46.05Q171.55 46.35 171.25 46.55L170.85 46.55Q170.70 46.60 170.50 46.67Q170.30 46.75 170.05 46.75L162.05 46.75Q161.80 46.75 161.60 46.67Q161.40 46.60 161.20 46.55L161.60 46.55Q161.30 46.35 161.05 46.05L160.35 46.05Q160.25 45.95 160.20 45.80Q160.15 45.65 160.05 45.55L159.95 45.55L159.95 45.50L159.85 45.30L161.10 45.30L161.00 45.05L160.65 45.05L160.45 44.55L160.40 44.55L160.20 44.05L160.30 44.05L160.10 43.55L160.15 43.55L159.95 43.05L159.90 43.05L159.70 42.55L159.30 42.55L158.90 41.55L159.45 41.55L159.25 41.05L158.15 41.05L157.85 40.30L154.25 40.30L154.15 40.05L158.35 40.05L158.05 39.30L158.65 39.30L158.40 38.80L153.20 38.80L153.10 38.55L151.10 38.55L150.65 37.55L159.10 37.55L158.65 36.55L150.80 36.55L150.40 35.55L153.95 35.55L153.85 35.30L153.55 35.30L153.25 34.55L157.25 34.55L157.05 34.05L155.75 34.05L155.65 33.80L156.00 33.80L155.80 33.30L156.00 33.30L155.90 33.05L153.30 33.05L153.00 32.30L154.30 32.30L154.20 32.05L151.15 32.05L150.95 31.55L155.25 31.55L154.95 30.80L154.60 30.80L154.40 30.30L154.65 30.30L154.45 29.80L152.20 29.80L152.10 29.55L155.20 29.55L155.10 29.30L154.00 29.30L153.90 29.05L153.80 29.05L153.40 28.05L154.60 28.05L154.30 27.30L152.05 27.30L151.85 26.80L153.15 26.80L152.95 26.30L152.85 26.30L152.45 25.30L152.30 25.30L152.20 25.05L152.05 25.05L151.95 24.80L152.30 24.80L152.20 24.55L152.45 24.55L152.15 23.80L152.05 23.80L151.95 23.55L151.40 23.55L151.00 22.55L152.00 22.55L151.90 22.30Q151.85 22.20 151.85 22.05L152.05 22.05L152.05 21.95Q152.05 21.40 152.50 21.05L151.10 21.05Q151.40 20.75 151.85 20.75L160.30 20.75Q161.00 20.75 161.35 21.05L162.70 21.05Q162.95 21.25 163.13 21.47Q163.30 21.70 163.35 21.95L163.40 22.05L163.15 22.05L163.35 22.55L162.35 22.55L162.70 23.55L163.25 23.55L163.30 23.80L163.40 23.80L163.65 24.55L163.40 24.55L163.50 24.80L163.15 24.80L163.25 25.05L163.40 25.05L163.45 25.30L163.60 25.30L163.95 26.30L164.05 26.30L164.20 26.80L162.90 26.80L163.05 27.30L165.30 27.30L165.55 28.05L164.35 28.05L164.70 29.05L164.80 29.05L164.90 29.30L166.00 29.30L166.10 29.55L163.00 29.55L163.05 29.80L165.30 29.80L165.50 30.30L165.20 30.30L165.40 30.80L165.70 30.80L165.95 31.45L166.15 30.80L167.60 30.80L167.75 30.30L167.90 30.30L168.05 29.80L167.05 29.80L167.10 29.55L168.55 29.55L168.65 29.30L168.00 29.30L168.05 29.05L167.05 29.05L167.40 28.05L170.25 28.05L170.50 27.30L169.60 27.30L169.80 26.80L168.80 26.80L168.95 26.30L171.45 26.30L171.80 25.30L167.35 25.30L167.45 25.05L168.95 25.05L169.05 24.80L168.25 24.80L168.35 24.55L170.05 24.55L170.30 23.80L169.85 23.80L169.95 23.55L169.50 23.55L169.85 22.55L170.85 22.55L171.00 22.05L171.30 22.05L171.30 21.95Q171.40 21.70 171.55 21.47Q171.70 21.25 171.95 21.05L171.20 21.05Q171.60 20.75 172.20 20.75L180.65 20.75Q181.10 20.75 181.45 21.05L182.20 21.05Q182.60 21.35 182.60 21.95L182.60 22.05L182.35 22.05Q182.35 22.10 182.33 22.15Q182.30 22.20 182.30 22.30L182.20 22.55L181.20 22.55L180.80 23.55L181.25 23.55L181.15 23.80L181.55 23.80L181.25 24.55L179.55 24.55L179.45 24.80L180.25 24.80L180.15 25.05L178.60 25.05L178.50 25.30L182.95 25.30L182.55 26.30L180.05 26.30L179.85 26.80L180.85 26.80L180.65 27.30L181.55 27.30L181.20 28.05L178.40 28.05L177.95 29.05L178.95 29.05L178.85 29.30L179.55 29.30L179.45 29.55L177.95 29.55L177.85 29.80L178.90 29.80L178.70 30.30L178.55 30.30L178.35 30.80L176.95 30.80L176.65 31.55M171.75 32.05L174.40 32.05L174.60 31.55L161.65 31.55L161.85 32.05L164.85 32.05L164.95 32.30L163.65 32.30L163.90 33.05L165.90 33.05L166.20 32.30L171.70 32.30L171.75 32.05M167.10 33.30L167.20 33.05L166.50 33.05L166.60 33.30L166.40 33.30L166.50 33.60L166.60 33.30L167.10 33.30Z"/></g></g></svg>